{"title":"Adventureland.(2009).(Dutchsubs-HC)-WaRlOrD","uid":5050516,"size":635084223,"categoryP":"video","categoryS":"movies","magnet":"?xt=urn:btih:0b21b682907c71fca147bdba56dad1d0ddd8dcc3&amp;dn=Adventureland.%282009%29.%28Dutchsubs-HC%29-WaRlOrD&amp;tr=udp%3A%2F%2Ftracker.openbittorrent.com%3A80&amp;tr=udp%3A%2F%2Fopen.demonii.com%3A1337&amp;tr=udp%3A%2F%2Ftracker.coppersurfer.tk%3A6969&amp;tr=udp%3A%2F%2Fexodus.desync.com%3A6969","seeders":1,"leechers":0,"uploader":"bitpirate","files":2,"time":1250168887,"description":"(((((((((hardcoded Dutch subs)))))))\n\nVerenigde Staten\nKomedie / Romantiek\n107 minuten\n\ngeregisseerd door Greg Mottola\nmet Jesse Eisenberg, Kristen Stewart en Ryan Reynolds\n\nAdventureland gaat over de net afgestudeerde tiener James Brennan (Jesse Eisenberg) in de zomer van 1987. Omdat zijn vader dankzij z'n baan met een financiÃƒÂ«le terugslag te maken krijgt, moet James zelf werken voor zijn schoolgeld. Omdat James erg weinig ervaring heeft, wordt hij bij verschillende bedrijven niet aangenomen en lijkt het erop dat hij geen andere keus heeft om een nietszeggend baantje te nemen bij het pretpark Adventureland. Hij wordt hier al snel verliefd op Emily Lewin (Kristen Stewart), wat een serie gebeurtenissen in gang zet die James belangrijke dingen over het leven, de liefde en vertouwen leert...\n &lt;a href=&quot;\nhttp://www.moviemeter.nl/film/54080&quot; rel=&quot;nofollow&quot; target=&quot;_NEW&quot;&gt;\nhttp://www.moviemeter.nl/film/54080&lt;/a&gt;\n------------------------\n\nFormat : AVI\nFormat/Info : Audio Video Interleave\nFile size : 606 MiB\nDuration : 1h 40mn\nOverall bit rate : 839 Kbps\nWriting application : Nandub v1.0rc2\nWriting library : VirtualDub build 30586/release\n\nVideo\nID : 0\nFormat : MPEG-4 Visual\nFormat profile : Advanced Simple@L5\nFormat settings, BVOP : Yes\nFormat settings, QPel : No\nFormat settings, GMC : No warppoints\nFormat settings, Matrix : Default (H.263)\nMuxing mode : Packed bitstream\nCodec ID : XVID\nCodec ID/Hint : XviD\nDuration : 1h 40mn\nBit rate : 718 Kbps\nWidth : 640 pixels\nHeight : 352 pixels\nDisplay aspect ratio : 16/9\nFrame rate : 23.976 fps\nResolution : 24 bits\nColorimetry : 4:2:0\nScan type : Progressive\nBits/(Pixel*Frame) : 0.133\nStream size : 518 MiB (86%)\nWriting library : XviD 1.2.1 (UTC 2008-12-04)\n\nAudio\nID : 1\nFormat : MPEG Audio\nFormat version : Version 1\nFormat profile : Layer 3\nCodec ID : 55\nCodec ID/Hint : MP3\nDuration : 1h 40mn\nBit rate mode : Constant\nBit rate : 112 Kbps\nChannel(s) : 2 channels\nSampling rate : 48.0 KHz\nResolution : 16 bits\nStream size : 80.8 MiB (13%)\nAlignment : Split accross interleaves\nInterleave, duration : 42 ms (1.00 video frame)\nInterleave, preload duration : 500 ms\n","torrent":{"xt":"urn:btih:0b21b682907c71fca147bdba56dad1d0ddd8dcc3","amp;dn":"Adventureland.%282009%29.%28Dutchsubs-HC%29-WaRlOrD","amp;tr":["udp%3A%2F%2Ftracker.openbittorrent.com%3A80","udp%3A%2F%2Fopen.demonii.com%3A1337","udp%3A%2F%2Ftracker.coppersurfer.tk%3A6969","udp%3A%2F%2Fexodus.desync.com%3A6969"],"infoHash":"0b21b682907c71fca147bdba56dad1d0ddd8dcc3","infoHashBuffer":{"type":"Buffer","data":[11,33,182,130,144,124,113,252,161,71,189,186,86,218,209,208,221,216,220,195]},"announce":[],"urlList":[]}}